<svg xmlns="http://www.w3.org/2000/svg" viewBox="0 0 100 100">
  <title>Insureversia Logo Mark</title>
  <g fill="none" stroke="#00203F" stroke-width="2.5">
    <ellipse cx="50" cy="50" rx="40" ry="25" transform="rotate(0 50 50)"/>
    <ellipse cx="50" cy="50" rx="40" ry="25" transform="rotate(45 50 50)"/>
    <ellipse cx="50" cy="50" rx="40" ry="25" transform="rotate(90 50 50)"/>
    <ellipse cx="50" cy="50" rx="40" ry="25" transform="rotate(135 50 50)"/>
  </g>
  <g fill="#C5A059">
    <circle cx="50" cy="10" r="3"/>
    <circle cx="50" cy="90" r="3"/>
    <circle cx="10" cy="50" r="3"/>
    <circle cx="90" cy="50" r="3"/>
    <circle cx="22" cy="22" r="3"/>
    <circle cx="78" cy="22" r="3"/>
    <circle cx="22" cy="78" r="3"/>
    <circle cx="78" cy="78" r="3"/>
    <circle cx="36" cy="36" r="3"/>
    <circle cx="64" cy="36" r="3"/>
    <circle cx="36" cy="64" r="3"/>
    <circle cx="64" cy="64" r="3"/>
  </g>
  <g fill="#00A4B4">
    <circle cx="50" cy="30" r="4"/>
    <circle cx="50" cy="70" r="4"/>
  </g>
  <text x="50" y="58" fill="#00203F" font-family="serif" font-size="24" text-anchor="middle">I</text>
</svg>