<?xml version="1.0" encoding="UTF-8" standalone="no"?>
<!-- Created with Inkscape (http://www.inkscape.org/) -->

<svg
   width="750"
   height="460.01297"
   viewBox="0 0 198.4375 121.71177"
   version="1.1"
   id="svg1"
   xmlns:xlink="http://www.w3.org/1999/xlink"
   xmlns="http://www.w3.org/2000/svg"
   xmlns:svg="http://www.w3.org/2000/svg">
  <defs
     id="defs1">
    <clipPath
       clipPathUnits="userSpaceOnUse"
       id="clipPath164">
      <path
         id="path164"
         d="m 2707.1403,281.17164 c -73.8801,80.8594 -142.3501,155.80832 -211.3704,231.35951 -19.0295,20.82806 -18.0798,52.9095 2.3601,72.35963 77.56,73.80842 157.3099,149.69958 238.5002,226.96113 19.9499,18.98805 51.42,19.13579 71.4596,0.23367 79.8802,-75.40194 158.8499,-149.94079 233.3902,-220.28101 20.7097,-19.56244 21.6603,-52.05093 2.2501,-72.9099 -70.6598,-75.91075 -142.2702,-152.85194 -221.7502,-238.24315 -31.0201,-33.3154 -84.1399,-33.08851 -114.8396,0.52766"
         style="display:none;fill:#ffffff;fill-opacity:1;fill-rule:nonzero;stroke:none;stroke-width:0.999997" />
      <path
         id="lpe_path-effect164"
         style="fill:#ffffff;fill-opacity:1;fill-rule:nonzero;stroke:none;stroke-width:0.999997"
         class="powerclip"
         d="M 2227.0233,-4.9995105 H 3336.1832 V 1164.8885 H 2227.0233 Z m 480.117,286.1711505 c -73.8801,80.8594 -142.3501,155.80832 -211.3704,231.35951 -19.0295,20.82806 -18.0798,52.9095 2.3601,72.35963 77.56,73.80842 157.3099,149.69958 238.5002,226.96113 19.9499,18.98805 51.42,19.13579 71.4596,0.23367 79.8802,-75.40194 158.8499,-149.94079 233.3902,-220.28101 20.7097,-19.56244 21.6603,-52.05093 2.2501,-72.9099 -70.6598,-75.91075 -142.2702,-152.85194 -221.7502,-238.24315 -31.0201,-33.3154 -84.1399,-33.08851 -114.8396,0.52766" />
    </clipPath>
  </defs>
  <g
     id="g137"
     transform="translate(-1145.7194,65.693806)">
    <use
       x="0"
       y="0"
       xlink:href="#g156-2-1"
       id="use165-2"
       transform="translate(-1277.3333,-311.62007)" />
  </g>
  <g
     id="layer9"
     transform="translate(-1418.9957,-207.56341)">
    <g
       id="g156-2-1"
       transform="matrix(0.26325189,0,0,0.26325189,2423.0527,208.31802)">
      <path
         id="path149-5-4"
         d="m 4374,2035.18 c -13.45,-9.84 -26.43,-19.34 -39.1,-28.61 -19.17,-14.03 -26.32,-39.46 -16.82,-61.23 135.77,-311.2 108.17,-536.89 -83.98,-734.89 -239.94,-247.239 -630.22,-242.739 -865.68,9.97 -233.02,250.09 -212.38,645.09 54.74,862.37 150.3,122.25 314.19,227.83 472.3,340.45 305.89,217.88 612,435.46 924.96,658.09 22.89,16.27 54.69,11.63 71.89,-10.56 15.77,-20.33 31.15,-40.17 47.02,-60.64 18.25,-23.54 13.15,-57.66 -11.15,-74.88 -448.44,-317.72 -890.03,-631.43 -1332.77,-943.5 -146.31,-103.13 -224.51,-237.83 -202.01,-419.09 19.74,-159.13 111.24,-269.61 255.87,-332.19 176.36,-76.3 380.7,-15.21 495.77,141.57 115.26,157.04 108.8,365.15 -19.57,513.45 -18.14,20.96 -39.77,38.91 -63.9,58.17 -27.08,21.62 -26.08,63.17 2.04,83.43 59.82,43.1 112.73,81.28 165.87,119.11 59.82,42.6 119.93,84.79 178.88,126.29 18.78,13.22 43.89,12.02 61.67,-2.51 244.57,-199.92 342.52,-621.22 221.99,-964.06 C 4546.26,901.289 4173.24,665 3711.72,694.93 c -412.58,26.761 -724.18,320.99 -839.22,795.74 -5.68,23.47 -26.3,40.26 -50.45,40.26 h -97.72 c -24.84,0 -45.83,-17.71 -50.87,-42.03 -51.84,-250.68 -164.01,-464.32 -378.42,-619.341 -162.94,-117.809 -341.36,-176.797 -542.02,-179.95 -392.64,-6.168 -745.79,226.993 -889.254,591.981 -135.008,343.48 -53.512,743.99 205.844,996.17 18.12,17.62 45.94,20.45 66.6,5.89 110.64,-78.03 223.33,-157.49 340.61,-240.19 25.93,-18.29 29.73,-55.46 7.99,-78.56 -13.54,-14.38 -26.43,-28.07 -39.35,-41.74 -174.69,-184.82 -167.21,-443.71 17.62,-609.47 176.4,-158.19 445.4,-135.96 599.73,49.56 150.8,181.29 124.17,447.84 -74.3,595.76 -290.49,216.52 -589.22,421.97 -884.42,632.16 -160.11,114 -320.188,228.03 -485.406,345.71 -24.188,17.23 -29.215,51.35 -10.891,74.72 15.949,20.34 31.359,40 47.055,60.02 17.148,21.87 48.535,26.38 71.179,10.27 468.683,-333.45 933.903,-655.66 1387.813,-993.08 253.77,-188.65 295.08,-547.28 119.04,-799.97 -179.12,-257.1 -522.66,-334.918 -791.79,-179.37 -271.7,157.04 -374.56,483.93 -243.13,774.02 8.55,18.87 18.1,37.29 28.52,57.16 11.97,22.82 5.36,51.01 -15.51,66.11 -14.1,10.2 -28.16,20.38 -42.63,30.85 -24.41,17.67 -59,11.01 -74.85,-14.62 -139.638,-225.98 -154.646,-461.44 -48.17,-703.26 116.82,-265.32 328.01,-425.148 617.73,-446.199 467.53,-33.972 799.44,264.629 833.18,737.499 6.02,84.5 33.21,112.95 114.46,109.07 108.13,-5.17 216.69,-3.05 324.88,0.89 87.65,3.19 110.22,-35.56 115.1,-125.53 19.6,-361.71 246.03,-628.628 589.97,-710.671 300.9,-71.769 626.17,60.16 799.45,324.251 165.53,252.29 170.51,556.57 9.57,811.72 -16.24,25.75 -51.09,32.39 -75.66,14.42"
         style="fill:#a51c21;fill-opacity:1;fill-rule:nonzero;stroke:none"
         transform="matrix(0.13333333,0,0,-0.13333333,0,605.2)" />
      <path
         id="path150-5-4"
         d="M 2817.78,1133.21 C 2947.3,903.551 3111.83,742 3303.61,639.93 c 29.86,-15.899 36.87,-55.45 14.1,-80.461 C 3159.79,386.02 3001.39,212.039 2831.55,25.5117 2800.07,-9.07031 2745.29,-8.39063 2714.63,26.9219 2552.21,214.031 2398,391.68 2244.68,568.289 c -21.86,25.18 -14.46,63.781 14.93,79.531 176.86,94.77 341.04,255.16 467.29,484.85 19.81,36.04 70.67,36.36 90.88,0.54"
         style="fill:#a51c21;fill-opacity:1;fill-rule:nonzero;stroke:none"
         transform="matrix(0.13333333,0,0,-0.13333333,0,605.2)"
         clip-path="url(#clipPath164)" />
      <path
         id="path151-2-0"
         d="m 3561.81,1668.02 c 1.97,12.61 13.4,21.57 26.17,21.47 59.65,-0.46 117.96,-11.05 139.81,12.37 26.41,28.3 18.56,88.57 23.66,155.71 0.79,10.44 7.99,19.75 18.08,22.51 87.95,24.13 175.62,-14.88 244.41,-107.99 72.31,-97.86 65.53,-215.98 -12.47,-308.49 -77,-91.32 -197.5,-118.57 -301.85,-68.26 -112.67,54.32 -157.18,148.35 -137.81,272.68"
         style="fill:#a51c21;fill-opacity:1;fill-rule:nonzero;stroke:none"
         transform="matrix(0.13333333,0,0,-0.13333333,0,605.2)" />
      <path
         id="path152-7-2"
         d="m 1960.44,1689.15 c 13.62,0.05 25.43,-10.32 26.25,-23.91 10.4,-170.9 -80.07,-287.77 -236.89,-294.15 -145.95,-5.93 -276.75,124.74 -268.33,268.07 9.02,153.72 134.96,248.62 296.2,234.52 13.25,-1.16 23.16,-12.82 23.08,-26.13 -0.32,-53.92 -9.33,-113.45 16.27,-143.58 21.38,-25.16 84.26,-15.06 143.42,-14.82"
         style="fill:#a51c21;fill-opacity:1;fill-rule:nonzero;stroke:none"
         transform="matrix(0.13333333,0,0,-0.13333333,0,605.2)" />
      <path
         id="path154-1-8"
         d="m 4670.3,3338.03 c 11.04,-12.9 20.98,-23.75 31.64,-35.95 20.18,-23.09 16.17,-58.53 -8.82,-76.31 C 4177.1,2858.73 3332.34,2249.1 2823.89,1887.61 c -44.88,-31.9 -104.96,-31.94 -149.77,0.06 -503.99,359.98 -1303.22,987.55 -1818.425,1356.72 -26.172,18.75 -28.925,56.58 -5.933,79.12 8.097,7.93 16.066,15.36 24.086,23.12 26.968,26.09 68.379,29.79 98.847,7.88 393.185,-282.64 1062.335,-793.3 1421.065,-1046.7 115.68,-81.72 234.19,-220.13 352.1,-220.88 117.34,-0.74 237.55,136.05 353.04,217.46 364.37,256.84 1103.11,760.09 1502.48,1042.4 21.77,15.39 51.59,11.5 68.92,-8.76"
         style="display:inline;fill:#a51c21;fill-opacity:1;fill-rule:nonzero;stroke:none"
         transform="matrix(0.13333333,0,0,-0.13333333,0,605.2)" />
      <path
         id="path155-0-5"
         d="m 117.418,2754.32 c 15.582,0.63 30.613,5.93 43.145,15.21 l 133.468,98.91 c 115.973,81.3 374.446,317.09 484.844,363.39 108.211,45.38 225.865,-86.24 376.145,-206.92 354.75,-251.95 446.3,-336.93 783.98,-577.54 34.4,-24.52 81.51,-19.76 110.51,10.96 0.37,0.39 0.73,0.78 1.1,1.17 35.14,37.19 -1.03,97.01 -42.64,126.78 -433.99,310.54 -641.06,493.77 -1065.95,797.79 -86.45,61.86 -235.239,51.95 -319.204,-13.24 C 302.324,3122.01 126.813,2976.51 26.6797,2888.94 -28.5117,2840.68 7.92188,2749.88 81.1836,2752.85 l 36.2344,1.47"
         style="fill:#a51c21;fill-opacity:1;fill-rule:nonzero;stroke:none"
         transform="matrix(0.13333333,0,0,-0.13333333,0,605.2)" />
      <path
         id="path156-9-5"
         d="m 3603.94,2500.4 c -0.37,0.38 -0.74,0.77 -1.1,1.16 -35.14,37.19 1.03,97.01 42.64,126.78 433.99,310.54 641.06,493.77 1065.95,797.79 86.45,61.86 235.24,51.95 319.2,-13.24 320.49,-248.82 496,-394.32 596.14,-481.89 55.19,-48.26 18.76,-139.06 -54.5,-136.09 l -36.24,1.47 c -15.58,0.63 -30.61,5.93 -43.15,15.22 l -133.46,98.9 c -115.97,81.3 -374.45,317.09 -484.85,363.39 -108.21,45.38 -217.62,-86.96 -387.62,-189.46"
         style="fill:#a51c21;fill-opacity:1;fill-rule:nonzero;stroke:none"
         transform="matrix(0.13333333,0,0,-0.13333333,0,605.2)" />
    </g>
  </g>
</svg>
